<svg id="bell" class="svg-icons" width="41" height="41" viewBox="0 0 41 41" fill="none" xmlns="http://www.w3.org/2000/svg">
<path d="M30.6387 13.6553C30.6387 11.0031 29.5851 8.45957 27.7097 6.58421C25.8344 4.70884 23.2908 3.65527 20.6387 3.65527C17.9865 3.65527 15.443 4.70884 13.5676 6.58421C11.6922 8.45957 10.6387 11.0031 10.6387 13.6553C10.6387 25.3219 5.63867 28.6553 5.63867 28.6553H35.6387C35.6387 28.6553 30.6387 25.3219 30.6387 13.6553Z" stroke="black" stroke-opacity="0.5" stroke-width="4" stroke-linecap="round" stroke-linejoin="round"/>
<path d="M23.522 35.3223C23.229 35.8274 22.8084 36.2467 22.3024 36.5381C21.7964 36.8296 21.2227 36.983 20.6387 36.983C20.0547 36.983 19.481 36.8296 18.975 36.5381C18.469 36.2467 18.0484 35.8274 17.7554 35.3223" stroke="black" stroke-opacity="0.5" stroke-width="4" stroke-linecap="round" stroke-linejoin="round"/>
</svg>
